<?xml version="1.0" encoding="UTF-8"?>
<svg id="Camada_1" data-name="Camada 1" xmlns="http://www.w3.org/2000/svg" viewBox="0 0 370.32 385.81">
  <defs>
    <style>
      .cls-1 {
        fill: #54391e;
        stroke-width: 0px;
      }
    </style>
  </defs>
  <path class="cls-1" d="m94.37,19.05s27.92-41.68,134.66-1.74c0,0,44.41,18.45,77.68,60.71,33.26,42.26,44.55,59.6,55.72,88.75,6.23,16.26,7.76,42.92,7.9,63.31.15,22.66-4.47,45.16-14.13,65.67-4.63,9.83-10.19,18.86-16.25,23.05-.47.32-.93.63-1.4.92-14.89,9.29-34.52.44-38.17-16.73-5.48-25.76-15.63-68.82-23.97-77.58-10.86-11.41-10.39-42.28-72.16-74.78-19.56-10.3-38.6-21.56-56.84-34.05l-.44-.3s-40.44-30-43.28-38.61c-.32-.96-.67-1.91-1.21-2.77-4.94-7.84-24.56-41.4-8.11-55.85Z"/>
  <path class="cls-1" d="m33.05,67.06s.15-.11.42-.29c14.62-9.96,34.71-2.2,39.01,14.96l9.34,37.27s16.69,86,68.86,106.54c7.8,3.07,15.41,6.56,22.61,10.84,24.86,14.78,75.54,46.63,92.9,70.41,23.35,32,20.38,51.43,13.46,58.52-5.57,5.71-13.59,20.47-57.64,20.5-23.69.01-47.15-4.46-69.38-12.63-16.11-5.93-34.54-14.16-44.52-23.62,0,0-38.53-30.22-54.87-56.58-6.2-10.01-12.77-19.79-19.66-29.34-10.5-14.54-23.06-33.62-24.32-43.15-.37-2.81-.8-5.6-1.55-8.33-3.79-13.76-12.45-51.11-4.41-80.65,1.57-5.79,3.07-11.58,4.43-17.42,3.16-13.57,10.59-37.3,25.31-47.04Z"/>
</svg>