<?xml version="1.0" encoding="UTF-8" standalone="no"?>
<!DOCTYPE svg PUBLIC "-//W3C//DTD SVG 20010904//EN"
              "http://www.w3.org/TR/2001/REC-SVG-20010904/DTD/svg10.dtd">

<svg xmlns="http://www.w3.org/2000/svg"
     width="1.35667in" height="1.60667in"
     viewBox="0 0 407 482">
  <path id="Seleção"
        fill="#fff" stroke="none" stroke-width="1"
        d="M 183.00,0.21
           C 183.00,0.21 217.00,0.21 217.00,0.21
             231.70,0.18 253.96,5.32 268.00,10.00
             332.08,31.36 380.88,82.01 399.42,147.00
             403.03,159.66 406.84,177.91 407.00,191.00
             407.19,207.84 407.26,221.21 404.56,238.00
             398.81,273.74 382.06,308.46 358.75,335.99
             358.75,335.99 335.00,359.57 335.00,359.57
             335.00,359.57 314.00,377.09 314.00,377.09
             314.00,377.09 264.00,424.96 264.00,424.96
             264.00,424.96 230.00,457.00 230.00,457.00
             230.00,457.00 210.00,476.00 210.00,476.00
             207.70,478.25 204.63,482.05 201.00,480.84
             199.23,480.25 194.60,476.12 193.00,474.72
             193.00,474.72 174.00,456.00 174.00,456.00
             174.00,456.00 158.00,440.96 158.00,440.96
             158.00,440.96 116.00,400.00 116.00,400.00
             116.00,400.00 98.00,382.96 98.00,382.96
             98.00,382.96 85.00,370.17 85.00,370.17
             85.00,370.17 72.00,359.71 72.00,359.71
             72.00,359.71 46.30,334.00 46.30,334.00
             29.91,314.87 17.95,291.68 9.69,268.00
             0.22,240.81 -0.33,218.23 0.00,190.00
             0.08,183.51 2.08,169.58 3.40,163.00
             12.59,117.02 37.69,75.17 74.00,45.46
             99.58,24.53 130.61,9.96 163.00,3.45
             163.00,3.45 183.00,0.21 183.00,0.21 Z
           M 307.00,79.00
           C 307.00,79.00 281.00,79.00 281.00,79.00
             254.01,79.04 230.24,95.45 223.15,122.00
             221.45,128.40 219.86,139.41 220.01,146.00
             220.01,146.00 221.00,158.00 221.00,158.00
             221.00,158.00 221.00,236.00 221.00,236.00
             221.00,236.00 256.00,236.00 256.00,236.00
             256.00,236.00 256.00,270.00 256.00,270.00
             256.00,270.00 257.00,289.00 257.00,289.00
             256.90,297.24 255.15,302.14 260.13,310.00
             269.28,324.42 290.42,326.13 301.47,312.91
             306.40,307.02 306.99,301.31 307.00,294.00
             307.00,294.00 307.00,79.00 307.00,79.00 Z
           M 106.00,80.57
           C 97.82,82.28 98.01,88.02 98.00,95.00
             98.00,95.00 98.00,135.00 98.00,135.00
             98.00,135.00 98.00,165.00 98.00,165.00
             98.00,171.30 97.39,177.95 99.36,184.00
             100.87,188.66 103.20,193.23 106.47,196.91
             113.20,204.50 115.98,199.75 116.00,212.00
             116.00,212.00 116.00,294.00 116.00,294.00
             116.01,300.76 116.51,305.27 120.64,311.00
             133.31,328.57 160.48,322.32 165.39,304.00
             166.09,301.37 166.00,298.70 166.00,296.00
             166.00,296.00 166.00,212.00 166.00,212.00
             166.02,199.49 170.08,202.75 177.53,193.96
             182.47,188.14 183.91,183.50 184.00,176.00
             184.00,176.00 184.00,116.00 184.00,116.00
             184.00,116.00 183.04,106.00 183.04,106.00
             183.04,106.00 183.04,91.00 183.04,91.00
             182.90,85.65 180.57,80.05 174.02,81.47
             167.79,82.83 168.01,89.01 168.00,94.00
             168.00,94.00 168.00,148.00 168.00,148.00
             167.99,151.54 168.24,154.82 166.11,157.89
             162.44,163.18 155.48,163.33 151.85,157.89
             149.77,154.77 150.01,150.60 150.00,147.00
             150.00,147.00 150.00,143.00 150.00,143.00
             150.00,143.00 149.00,128.00 149.00,128.00
             149.00,128.00 149.00,92.00 149.00,92.00
             148.82,79.13 138.96,78.05 134.74,84.11
             132.86,86.80 133.02,89.89 133.00,93.00
             133.00,93.00 133.00,146.00 133.00,146.00
             132.99,149.77 133.22,153.63 131.15,156.98
             127.22,163.32 119.85,164.03 116.17,156.98
             114.47,153.72 115.04,146.83 115.00,143.00
             115.00,143.00 114.00,128.00 114.00,128.00
             114.00,128.00 114.00,91.00 114.00,91.00
             113.89,84.99 112.36,81.59 106.00,80.57 Z" />
</svg>
