<?xml version="1.0" encoding="UTF-8"?>
<svg id="Camada_1" data-name="Camada 1" xmlns="http://www.w3.org/2000/svg" viewBox="0 0 945.21 288.83">
  <defs>
    <style>
      .cls-1 {
        fill: #2a5c0b;
      }

      .cls-1, .cls-2 {
        stroke-width: 0px;
      }

      .cls-2 {
        fill: #faedd9;
      }
    </style>
  </defs>
  <g>
    <path class="cls-1" d="m372.59,97.38c-2.88,5.19-7.3,9.38-13.26,12.57-5.96,3.19-13.37,4.78-22.21,4.78h-16.35v38.86h-26.37V45.33h42.72c8.64,0,15.94,1.49,21.9,4.47,5.96,2.98,10.43,7.09,13.42,12.34,2.98,5.24,4.47,11.26,4.47,18.04,0,6.27-1.44,12-4.32,17.2Zm-26.22-7.17c2.47-2.36,3.7-5.71,3.7-10.02s-1.23-7.66-3.7-10.02c-2.47-2.36-6.22-3.55-11.26-3.55h-14.34v27.14h14.34c5.04,0,8.79-1.18,11.26-3.55Z"/>
    <path class="cls-1" d="m392.71,87.13c3.34-6.68,7.89-11.82,13.65-15.42,5.76-3.6,12.18-5.4,19.28-5.4,6.07,0,11.39,1.23,15.96,3.7,4.57,2.47,8.1,5.71,10.56,9.72v-12.18h26.37v86.06h-26.37v-12.18c-2.57,4.01-6.15,7.25-10.72,9.72-4.58,2.47-9.9,3.7-15.96,3.7-6.99,0-13.37-1.82-19.12-5.48-5.76-3.65-10.31-8.84-13.65-15.58-3.34-6.73-5.01-14.52-5.01-23.36s1.67-16.6,5.01-23.29Zm53.98,7.87c-3.65-3.8-8.1-5.71-13.34-5.71s-9.69,1.88-13.34,5.63c-3.65,3.75-5.48,8.92-5.48,15.5s1.82,11.8,5.48,15.65c3.65,3.86,8.1,5.78,13.34,5.78s9.69-1.9,13.34-5.71c3.65-3.8,5.48-9,5.48-15.58s-1.83-11.77-5.48-15.58Z"/>
    <path class="cls-1" d="m526.35,39.47v114.12h-26.37V39.47h26.37Z"/>
    <path class="cls-1" d="m547.55,87.13c3.34-6.68,7.89-11.82,13.65-15.42,5.76-3.6,12.18-5.4,19.28-5.4,6.07,0,11.39,1.23,15.96,3.7,4.57,2.47,8.1,5.71,10.56,9.72v-12.18h26.37v86.06h-26.37v-12.18c-2.57,4.01-6.14,7.25-10.72,9.72-4.58,2.47-9.9,3.7-15.96,3.7-6.99,0-13.37-1.82-19.12-5.48-5.76-3.65-10.31-8.84-13.65-15.58-3.34-6.73-5.01-14.52-5.01-23.36s1.67-16.6,5.01-23.29Zm53.98,7.87c-3.65-3.8-8.1-5.71-13.34-5.71s-9.69,1.88-13.34,5.63c-3.65,3.75-5.48,8.92-5.48,15.5s1.82,11.8,5.48,15.65c3.65,3.86,8.1,5.78,13.34,5.78s9.69-1.9,13.34-5.71c3.65-3.8,5.47-9,5.47-15.58s-1.83-11.77-5.47-15.58Z"/>
    <path class="cls-1" d="m654.58,87.13c3.34-6.68,7.89-11.82,13.65-15.42,5.76-3.6,12.18-5.4,19.28-5.4,5.65,0,10.82,1.18,15.5,3.55,4.68,2.37,8.35,5.55,11.03,9.56v-39.94h26.37v114.12h-26.37v-12.34c-2.47,4.11-5.99,7.4-10.56,9.87-4.58,2.47-9.9,3.7-15.96,3.7-7.09,0-13.52-1.82-19.28-5.48-5.76-3.65-10.31-8.84-13.65-15.58-3.34-6.73-5.01-14.52-5.01-23.36s1.67-16.6,5.01-23.29Zm53.98,7.87c-3.65-3.8-8.1-5.71-13.34-5.71s-9.69,1.88-13.34,5.63c-3.65,3.75-5.48,8.92-5.48,15.5s1.82,11.8,5.48,15.65c3.65,3.86,8.1,5.78,13.34,5.78s9.69-1.9,13.34-5.71c3.65-3.8,5.47-9,5.47-15.58s-1.83-11.77-5.47-15.58Z"/>
    <path class="cls-1" d="m761.61,87.13c3.34-6.68,7.89-11.82,13.65-15.42,5.76-3.6,12.18-5.4,19.28-5.4,6.07,0,11.39,1.23,15.96,3.7,4.57,2.47,8.1,5.71,10.56,9.72v-12.18h26.37v86.06h-26.37v-12.18c-2.57,4.01-6.14,7.25-10.72,9.72-4.58,2.47-9.9,3.7-15.96,3.7-6.99,0-13.37-1.82-19.12-5.48-5.76-3.65-10.31-8.84-13.65-15.58-3.34-6.73-5.01-14.52-5.01-23.36s1.67-16.6,5.01-23.29Zm53.98,7.87c-3.65-3.8-8.1-5.71-13.34-5.71s-9.69,1.88-13.34,5.63c-3.65,3.75-5.47,8.92-5.47,15.5s1.82,11.8,5.47,15.65c3.65,3.86,8.1,5.78,13.34,5.78s9.69-1.9,13.34-5.71c3.65-3.8,5.47-9,5.47-15.58s-1.83-11.77-5.47-15.58Z"/>
    <path class="cls-1" d="m906.8,70.7c4.63-2.72,9.77-4.09,15.42-4.09v27.91h-7.25c-6.58,0-11.52,1.41-14.8,4.24-3.29,2.83-4.94,7.79-4.94,14.88v39.94h-26.37v-86.06h26.37v14.34c3.08-4.73,6.94-8.46,11.57-11.18Z"/>
  </g>
  <path class="cls-1" d="m372.59,231.38c-2.88,5.19-7.3,9.38-13.26,12.57-5.96,3.19-13.37,4.78-22.21,4.78h-16.35v38.86h-26.37v-108.26h42.72c8.64,0,15.94,1.49,21.9,4.47,5.96,2.98,10.43,7.09,13.42,12.34,2.98,5.24,4.47,11.26,4.47,18.04,0,6.27-1.44,12.01-4.32,17.2Zm-26.22-7.17c2.47-2.37,3.7-5.71,3.7-10.03s-1.23-7.66-3.7-10.02c-2.47-2.36-6.22-3.55-11.26-3.55h-14.34v27.14h14.34c5.04,0,8.79-1.18,11.26-3.55Z"/>
  <path class="cls-1" d="m394.87,188.51c-2.93-2.72-4.4-6.09-4.4-10.1s1.47-7.53,4.4-10.26c2.93-2.72,6.71-4.09,11.33-4.09s8.25,1.36,11.18,4.09c2.93,2.73,4.4,6.15,4.4,10.26s-1.47,7.38-4.4,10.1c-2.93,2.73-6.66,4.09-11.18,4.09s-8.4-1.36-11.33-4.09Zm24.44,13.03v86.06h-26.37v-86.06h26.37Z"/>
  <path class="cls-1" d="m617.88,210.41c6.02,6.53,9.02,15.5,9.02,26.91v50.28h-26.22v-46.73c0-5.76-1.49-10.23-4.47-13.42-2.98-3.19-6.99-4.78-12.03-4.78s-9.05,1.6-12.03,4.78c-2.98,3.19-4.47,7.66-4.47,13.42v46.73h-26.37v-86.06h26.37v11.41c2.67-3.8,6.27-6.81,10.8-9.02,4.52-2.21,9.61-3.32,15.27-3.32,10.07,0,18.12,3.26,24.13,9.79Z"/>
  <path class="cls-1" d="m728.22,250.89h-59.68c.41,5.35,2.13,9.43,5.17,12.26,3.03,2.83,6.76,4.24,11.18,4.24,6.58,0,11.15-2.78,13.73-8.33h28.07c-1.44,5.66-4.04,10.75-7.79,15.27-3.75,4.53-8.46,8.07-14.11,10.64-5.66,2.57-11.98,3.86-18.97,3.86-8.43,0-15.94-1.8-22.52-5.4-6.58-3.6-11.72-8.74-15.42-15.42-3.7-6.68-5.55-14.5-5.55-23.44s1.82-16.76,5.47-23.44c3.65-6.68,8.76-11.82,15.34-15.42,6.58-3.6,14.14-5.4,22.67-5.4s15.73,1.75,22.21,5.24c6.48,3.5,11.54,8.48,15.19,14.96,3.65,6.48,5.47,14.03,5.47,22.67,0,2.47-.15,5.04-.46,7.71Zm-26.53-14.65c0-4.52-1.54-8.12-4.63-10.8-3.08-2.67-6.94-4.01-11.57-4.01s-8.15,1.29-11.18,3.86c-3.03,2.57-4.91,6.22-5.63,10.95h33Z"/>
  <path class="cls-1" d="m746.81,188.51c-2.93-2.72-4.4-6.09-4.4-10.1s1.47-7.53,4.4-10.26c2.93-2.72,6.71-4.09,11.34-4.09s8.25,1.36,11.18,4.09c2.93,2.73,4.4,6.15,4.4,10.26s-1.46,7.38-4.4,10.1c-2.93,2.73-6.66,4.09-11.18,4.09s-8.41-1.36-11.34-4.09Zm24.44,13.03v86.06h-26.37v-86.06h26.37Z"/>
  <path class="cls-1" d="m830.63,204.7c4.63-2.72,9.77-4.09,15.42-4.09v27.92h-7.25c-6.58,0-11.52,1.41-14.8,4.24-3.29,2.83-4.94,7.79-4.94,14.88v39.94h-26.37v-86.06h26.37v14.34c3.08-4.73,6.94-8.46,11.57-11.18Z"/>
  <path class="cls-1" d="m243.1,121.55c0,28.38-9.78,54.52-26.14,75.23-1.91,2.42-3.92,4.78-6.01,7.04l-12.12,11.49h-.01c-2.24,1.86-4.54,3.63-6.91,5.31l-4.35,4.12-53.9,51.06-.9.86-11.97,11.34-11.98-11.58-.89-.86-53.08-51.29-4.25-4.1c-2.25-1.62-4.45-3.33-6.58-5.1l-13.23-12.78c-1.96-2.2-3.85-4.47-5.64-6.81C9.38,174.98,0,149.34,0,121.55,0,54.53,54.53,0,121.55,0s121.55,54.53,121.55,121.55Z"/>
  <path class="cls-2" d="m110.16,106.84c0,8.78-10.41,14.56-10.41,14.56v58.16c-1.26,7.34-7.65,12.93-15.35,12.93s-14.09-5.59-15.35-12.93c-.15-.86-.22-1.74-.22-2.64v-55.47c-7.79-2.16-10.38-13.48-10.38-13.48v-55.43c0-.33.03-.65.09-.95.44-2.3,2.47-4.04,4.9-4.04,2.56,0,4.66,1.92,4.96,4.4v1.1s.44,39,.44,39h.02c.19,2.58,2.35,4.62,4.98,4.62s4.82-2.07,4.98-4.69h.01l.4-40.16h.05c.36-2.41,2.43-4.26,4.94-4.26s4.64,1.9,4.95,4.37h.04l.63,39.75h.16c0,2.76,2.24,4.99,4.99,4.99s4.99-2.24,4.99-4.99v-38.73c0-.47.06-.93.19-1.36.59-2.1,2.52-3.63,4.8-3.63s4.21,1.54,4.8,3.63h.19l.2,55.26Z"/>
  <path class="cls-2" d="m165.64,46.99c-2.79,0-5.57.4-8.24,1.22-.03,0-.06.02-.1.03,0,0-.01,0-.02,0-3.17.99-7.34,2.71-11.37,5.64-6.51,4.74-13.85,13.59-14.56,29.56h0c-.05,1.14-.07,2.3-.05,3.5h0c.02,1.37.09,2.78.2,4.24l.41,50.34h20.78l.35,33.91s0-.03.01-.05c-.1.69-.15,1.39-.15,2.1,0,.52.02,1.03.08,1.53.78,7.68,7.39,13.69,15.4,13.69s14.52-5.93,15.38-13.53c.02-.13.03-.27.04-.41.04-.42.06-.86.06-1.29,0-.72-.05-1.42-.15-2.11.06.22.12.44.17.66l.1-64.74v-.48l.09-58.33v-5.5s-18.42,0-18.42,0Z"/>
  <path class="cls-1" d="m519.1,221.2c-3.91-6.73-9.25-11.9-16.04-15.5-6.79-3.6-14.4-5.4-22.83-5.4s-16.04,1.8-22.82,5.4c-6.79,3.6-12.13,8.77-16.04,15.5-3.91,6.73-5.86,14.52-5.86,23.37s1.93,16.76,5.78,23.44c3.86,6.68,9.15,11.82,15.88,15.42,6.73,3.6,14.32,5.4,22.75,5.4s16.06-1.8,22.9-5.4c6.84-3.6,12.23-8.76,16.19-15.5,3.96-6.73,5.94-14.52,5.94-23.36s-1.95-16.63-5.86-23.37Zm-28.36,43.73s-.99,3.22-10.52,2c0,0-9.95-1.71-15.18-9.65s-5.8-6.61-6.76-12.92c-.96-6.31.67-11.78,1.58-12.89.91-1.12,1.7-3.99,5.9-2.65l1.28,4.6s1.5,12.13,9.98,15.11c0,0,11.06,6.2,13.36,10.7,0,0,2.16,3.93.37,5.72Zm9.04-7.98c-.91,1.12-1.7,3.99-5.9,2.65l-1.28-4.6s-1.5-12.13-9.98-15.11c0,0-11.06-6.2-13.36-10.7,0,0-2.16-3.93-.37-5.72,0,0,.99-3.22,10.52-2,0,0,9.95,1.71,15.18,9.65s5.8,6.61,6.76,12.92c.96,6.31-.67,11.78-1.58,12.89Z"/>
  <path class="cls-1" d="m939.35,221.2c-3.91-6.73-9.25-11.9-16.04-15.5-6.79-3.6-14.4-5.4-22.82-5.4s-16.04,1.8-22.83,5.4c-6.79,3.6-12.13,8.77-16.04,15.5-3.91,6.73-5.86,14.52-5.86,23.37s1.93,16.76,5.78,23.44c3.86,6.68,9.15,11.82,15.88,15.42,6.73,3.6,14.32,5.4,22.75,5.4s16.06-1.8,22.9-5.4c6.84-3.6,12.23-8.76,16.19-15.5,3.96-6.73,5.94-14.52,5.94-23.36s-1.96-16.63-5.86-23.37Zm-27.61,43.73s-.99,3.22-10.52,2c0,0-9.95-1.71-15.18-9.65s-5.8-6.61-6.76-12.92c-.96-6.31.67-11.78,1.58-12.89.92-1.12,1.7-3.99,5.9-2.65l1.28,4.6s1.5,12.13,9.98,15.11c0,0,11.06,6.2,13.36,10.7,0,0,2.16,3.93.37,5.72Zm9.04-7.98c-.92,1.12-1.7,3.99-5.9,2.65l-1.28-4.6s-1.5-12.13-9.98-15.11c0,0-11.06-6.2-13.36-10.7,0,0-2.16-3.93-.37-5.72,0,0,.99-3.22,10.52-2,0,0,9.95,1.71,15.18,9.65s5.8,6.61,6.76,12.92c.96,6.31-.67,11.78-1.58,12.89Z"/>
</svg>