<?xml version="1.0" encoding="UTF-8"?>
<svg id="Camada_1" data-name="Camada 1" xmlns="http://www.w3.org/2000/svg" viewBox="0 0 640 640">
  <defs>
    <style>
      .cls-1 {
        fill: #005c00;
        stroke-width: 0px;
      }
    </style>
  </defs>
  <path class="cls-1" d="m474,400.5H176c-37.76,0-69.57,25.38-79.37,60,50.84,63.97,129.31,105,217.37,105,96.53,0,181.53-49.3,231.25-124.08-14.31-24.47-40.85-40.92-71.25-40.92Z"/>
  <path class="cls-1" d="m546.27,93.73C485.83,33.29,405.48,0,320,0S154.17,33.29,93.73,93.73,0,234.52,0,320s33.29,165.83,93.73,226.27c60.44,60.44,140.8,93.73,226.27,93.73s165.83-33.29,226.27-93.73c60.44-60.44,93.73-140.8,93.73-226.27s-33.29-165.83-93.73-226.27Zm-226.27,528.27c-166.52,0-302-135.48-302-302S153.48,18,320,18s302,135.48,302,302-135.48,302-302,302Z"/>
  <path class="cls-1" d="m230.16,298.41l13.23,12.78c2.13,1.78,4.33,3.48,6.58,5.1l4.25,4.1,53.08,51.29.89.86,11.98,11.58,11.97-11.34.9-.86,53.9-51.06,4.35-4.12c2.37-1.69,4.67-3.45,6.91-5.3h.01s12.12-11.5,12.12-11.5c2.1-2.27,4.1-4.62,6.01-7.04,16.36-20.71,26.14-46.85,26.14-75.23,0-67.02-54.53-121.55-121.55-121.55s-121.55,54.53-121.55,121.55c0,27.79,9.38,53.43,25.13,73.93,1.79,2.34,3.68,4.61,5.64,6.81Zm100.58-118.83h0c.71-15.98,8.05-24.83,14.56-29.57,4.03-2.93,8.2-4.65,11.37-5.64,0,0,.01,0,.02,0,.03-.01.06-.02.1-.03,2.67-.82,5.45-1.22,8.24-1.22h18.43v5.02s0,.48,0,.48l-.09,58.33v.48l-.1,64.74c-.05-.22-.11-.44-.17-.66.1.69.15,1.39.15,2.11,0,.43-.02.86-.06,1.29,0,.13-.02.27-.04.41-.86,7.6-7.43,13.53-15.38,13.53s-14.62-6.01-15.4-13.69c-.05-.5-.08-1.01-.08-1.53,0-.71.05-1.41.15-2.1,0,.02,0,.03-.01.05l-.35-33.91h-20.78l-.41-50.34c-.11-1.46-.18-2.87-.2-4.23h0c-.02-1.21,0-2.37.05-3.5Zm-72.9-30.93c0-.33.03-.65.09-.95.44-2.3,2.47-4.04,4.9-4.04,2.56,0,4.66,1.92,4.96,4.4v1.1s.44,39,.44,39h.02c.19,2.58,2.35,4.62,4.98,4.62s4.82-2.07,4.98-4.69h.01l.4-40.16h.05c.36-2.41,2.43-4.26,4.94-4.26s4.64,1.9,4.95,4.37h.04l.63,39.75h.16c0,2.76,2.24,4.99,4.99,4.99s4.99-2.24,4.99-4.99v-38.73c0-.47.06-.93.19-1.36.59-2.1,2.52-3.63,4.8-3.63s4.21,1.54,4.8,3.63h.19l.2,55.26c0,8.78-10.41,14.56-10.41,14.56v58.16c-1.26,7.34-7.65,12.93-15.35,12.93s-14.09-5.59-15.35-12.93c-.15-.86-.22-1.74-.22-2.64v-55.47c-7.79-2.16-10.38-13.48-10.38-13.48v-55.43Z"/>
</svg>